<svg width="180" height="31" viewBox="0 0 180 31" fill="none" xmlns="http://www.w3.org/2000/svg">
<g clip-path="url(#clip0_0_1390)">
<path d="M16.8748 18.7442H4.9048V14.7842H20.3398C19.9348 13.1042 18.6298 11.5442 16.3348 11.5442H5.1298C2.5648 11.5442 1.0798 12.8042 1.0798 15.5642V18.5042C1.0798 20.9042 2.6098 22.2842 4.85981 22.2842H16.9648V26.4842H0.674805C1.0798 28.7642 2.3848 29.9642 4.7248 29.9642H16.9198C19.4848 29.9642 20.7448 28.6442 20.7448 25.8242V22.8842C20.7448 20.3042 19.2598 18.9242 16.8748 18.7442Z" fill="white"/>
<path d="M41.3098 11.604H26.5498V30.024H30.7348V22.944H41.6248C44.6398 22.944 46.3048 21.564 46.3048 18.324V16.284C46.2598 13.284 44.3698 11.604 41.3098 11.604ZM42.6598 17.484C42.6598 18.804 42.4798 19.524 40.8598 19.524H30.7348L30.7798 14.724H40.6798C42.4798 14.724 42.7048 15.444 42.7048 16.704V17.484H42.6598Z" fill="white"/>
<path d="M58.4547 10.824L55.9347 14.964L60.2097 22.824H51.2997L49.0947 25.944H61.9647L64.1697 30.024H69.1197L58.4547 10.824Z" fill="white"/>
<path d="M77.1304 14.7842H92.7904C92.3854 12.6242 90.8104 11.5442 88.5604 11.5442H76.8604C74.8354 11.5442 72.9004 12.6242 72.9004 15.5642V25.8842C72.9004 28.8242 74.8354 29.9042 76.8604 29.9042H88.6954C91.3954 29.9042 92.3404 28.8842 92.7904 26.4242H77.1304V14.7842Z" fill="white"/>
<path d="M102.735 26.5439V20.9039H111.15V17.7839H98.5049V30.0239H117.18V26.5439H102.735Z" fill="white"/>
<path d="M117.81 11.604H98.9551V14.844H117.81V11.604Z" fill="white"/>
<path d="M129.421 11.604H122.851L130.591 19.164C131.716 18.144 133.021 17.064 134.191 16.164L129.421 11.604Z" fill="white"/>
<path d="M138.961 21.0239C137.836 22.0439 136.711 23.1839 135.631 24.2639L141.481 29.9639H148.096L138.961 21.0239Z" fill="white"/>
<path d="M179.55 0.864014C143.55 3.62401 126.9 24.144 123.165 29.004L122.4 29.964H129.06C147.06 5.90401 172.935 1.64401 179.55 0.864014Z" fill="#FA7709"/>
</g>
<defs>
<clipPath id="clip0_0_1390">
<rect width="180" height="30" fill="white" transform="translate(0 0.444092)"/>
</clipPath>
</defs>
</svg>
